<svg width="55" height="55" viewBox="0 0 55 55" fill="none" xmlns="http://www.w3.org/2000/svg">
<path d="M8.71122 27.1021L12.5258 22.4329L15.3466 16.7357C14.0933 14.4566 12.1086 12.5513 8.97526 12.5513H1.06903C0.377129 12.5513 -0.128504 13.3352 0.0288685 14.1526C0.351563 15.8214 1.2176 18.3306 3.53403 19.3367C3.53403 19.3367 2.81882 24.9275 7.8165 25.1148C7.8165 25.1148 7.98172 26.121 8.71122 27.1021V27.1021Z" fill="#F5DE8E"/>
<path d="M15.3469 16.7356C14.6993 17.4545 13.9985 18.2905 13.2796 19.244C11.6244 21.4394 10.2071 23.8131 9.06699 26.2989C8.94485 26.5651 8.82723 26.8331 8.71143 27.1019C9.10008 27.6244 9.64846 28.1399 10.4181 28.4925L14.7044 24.3929L16.3405 18.9904C16.0756 18.234 15.7484 17.4657 15.3469 16.7356V16.7356Z" fill="#EDD17A"/>
<path d="M36.5988 2.73663L33.8997 11.3813H21.1007L18.4016 2.73663C17.9889 1.41476 18.7929 0 19.9568 0H35.0436C36.2076 0 37.0115 1.41476 36.5988 2.73663V2.73663Z" fill="#CF916D"/>
<path d="M35.0436 0H19.9568C18.7929 0 17.9889 1.41476 18.4016 2.73663L20.3437 8.95686L27.5008 10.1312L34.6566 8.95686L36.5988 2.73663C37.0115 1.41476 36.2076 0 35.0436 0Z" fill="#CF916D"/>
<path d="M20.3438 8.95703L21.1006 11.3813L27.5009 12.5556L33.8997 11.3813L34.6566 8.95703H20.3438Z" fill="#C5815F"/>
<path d="M46.2888 27.1021L42.4742 22.4329L39.6533 16.7357C40.9067 14.4566 42.8913 12.5513 46.0247 12.5513H53.9309C54.6228 12.5513 55.1285 13.3352 54.9711 14.1526C54.6484 15.8214 53.7824 18.3306 51.4659 19.3367C51.4659 19.3367 52.1811 24.9275 47.1835 25.1148C47.1835 25.1148 47.0183 26.121 46.2888 27.1021Z" fill="#F5DE8E"/>
<path d="M39.6534 16.7356C40.301 17.4545 41.0018 18.2905 41.7206 19.244C43.3759 21.4394 44.7932 23.8131 45.9333 26.2989C46.0554 26.5651 46.1731 26.8331 46.2889 27.1019C45.9002 27.6244 45.3518 28.1399 44.5821 28.4925L40.2958 24.3929L38.6597 18.9904C38.9247 18.234 39.2518 17.4657 39.6534 16.7356V16.7356Z" fill="#EDD17A"/>
<path d="M27.5 53.7499C38.5279 53.7499 47.148 50.186 47.148 39.3016C47.1 38.4127 47.0026 37.4804 46.8495 36.5C44.7103 22.7965 35.1967 15.6113 35.1967 15.6113L27.5007 14.437L19.8033 15.6113C19.8033 15.6113 10.2897 22.7965 8.15058 36.5C7.9975 37.4804 7.90007 38.4127 7.85205 39.3016C7.85194 50.8506 16.4721 53.7499 27.5 53.7499V53.7499Z" fill="#CF916D"/>
<path d="M19.7665 14.3613H35.234C35.8241 14.3613 36.6597 13.4888 36.6597 12.2841C36.3448 11.7387 35.8242 11.3813 35.234 11.3813H19.7665C19.1765 11.3813 18.6558 11.7389 18.3408 12.2841C18.3408 13.5243 19.1763 14.3613 19.7665 14.3613Z" fill="#F5DE8E"/>
<path d="M35.2336 13.1868H19.7662C19.1761 13.1868 18.6555 12.8293 18.3405 12.2839C18.1422 12.6274 18.0249 13.0447 18.0249 13.4961C18.0249 14.6642 18.8046 15.6111 19.7662 15.6111H35.2337C36.1955 15.6111 36.975 14.6642 36.975 13.4961C36.975 13.0447 36.8577 12.6274 36.6594 12.2839C36.3444 12.8295 35.8238 13.1868 35.2336 13.1868Z" fill="#EDD17A"/>
<path d="M27.4999 52.5757C16.472 52.5757 8.43988 49.2194 7.85186 39.3018C7.2141 51.1037 15.618 55.0001 27.4999 55.0001C39.3818 55.0001 47.7857 51.1037 47.148 39.3018C46.5599 49.2196 38.5278 52.5757 27.4999 52.5757Z" fill="#C5815F"/>
<path d="M25.0669 39.3309C24.6817 39.025 24.1653 39.156 23.9134 39.6239C23.6615 40.0916 23.7694 40.719 24.1545 41.0249C25.1087 41.783 25.7683 42.0227 26.5989 42.0895V42.9947C26.5989 43.5537 26.972 44.0068 27.4322 44.0068C27.8924 44.0068 28.2654 43.5537 28.2654 42.9947V42.0048C29.9593 41.5663 30.9496 39.8547 31.1711 38.2542C31.46 36.1667 30.5615 34.3519 28.8821 33.6308C28.6793 33.5438 28.4722 33.4528 28.2654 33.3585V29.2025C28.7505 29.3688 29.0379 29.6632 29.0651 29.6921C29.4036 30.0635 29.9261 30.0354 30.2361 29.6272C30.5481 29.2164 30.5268 28.576 30.1885 28.1971C30.1453 28.1488 29.4328 27.37 28.2653 27.1326V26.3249C28.2653 25.7659 27.8923 25.3127 27.4321 25.3127C26.9719 25.3127 26.5988 25.7659 26.5988 26.3249V27.2074C26.5043 27.2343 26.4087 27.2639 26.3113 27.2995C25.2021 27.7054 24.3735 28.8574 24.1487 30.306C23.9433 31.6298 24.2942 32.9079 25.0644 33.6416C25.4564 34.015 25.9408 34.3573 26.5988 34.7165V40.0604C26.0488 39.9989 25.6797 39.8179 25.0669 39.3309V39.3309ZM26.0928 32.0486C25.8184 31.7871 25.6981 31.2501 25.7864 30.6806C25.8623 30.1912 26.1152 29.6097 26.5988 29.3291V32.4527C26.4106 32.3225 26.239 32.188 26.0928 32.0486V32.0486ZM28.3266 35.5393C29.6669 36.1147 29.5847 37.5058 29.5275 37.9185C29.4202 38.6939 28.9916 39.5158 28.2654 39.8862V35.5127C28.2861 35.5217 28.3056 35.5304 28.3266 35.5393V35.5393Z" fill="#EEF3F9"/>
</svg>
