<svg id="Layer_1" enable-background="new 0 0 512 512" height="512" viewBox="0 0 512 512" width="512" xmlns="http://www.w3.org/2000/svg"><g><g><path d="m81.093 252.95 35.51-35.785 26.26-43.665c-11.668-17.467-30.143-32.07-59.312-32.07h-73.6c-6.441 0-11.148 6.008-9.683 12.273 3.004 12.79 11.066 32.021 32.63 39.732 0 0-6.658 42.849 39.866 44.284 0 0 1.538 7.712 8.329 15.231z" fill="#f5de8e"/><path d="m142.863 173.5c-6.028 5.51-12.552 11.917-19.244 19.225-15.409 16.826-28.603 35.018-39.216 54.07-1.137 2.04-2.232 4.094-3.31 6.154 3.618 4.005 8.723 7.956 15.888 10.658l39.901-31.42 15.231-41.406c-2.466-5.797-5.512-11.685-9.25-17.281z" fill="#edd17a"/><path d="m340.7 66.209-25.126 66.254h-119.148l-25.126-66.254c-3.842-10.131 3.643-20.974 14.478-20.974h140.444c10.836 0 18.32 10.843 14.478 20.974z" fill="#cf916d"/><path d="m326.222 45.235h-140.444c-10.835 0-18.32 10.843-14.478 20.974l18.079 47.673 66.627 9 66.614-9 18.08-47.673c3.842-10.131-3.642-20.974-14.478-20.974z" fill="#cf916d"/><path d="m189.38 113.883 7.046 18.58 59.581 9 59.567-9 7.046-18.58z" fill="#c5815f"/><path d="m430.907 252.95-35.51-35.785-26.26-43.665c11.668-17.467 30.143-32.07 59.312-32.07h73.6c6.441 0 11.148 6.008 9.683 12.273-3.004 12.79-11.066 32.021-32.63 39.732 0 0 6.658 42.849-39.866 44.284 0 0-1.538 7.712-8.329 15.231z" fill="#f5de8e"/><path d="m369.137 173.5c6.028 5.51 12.552 11.917 19.244 19.225 15.409 16.826 28.603 35.018 39.216 54.07 1.137 2.04 2.232 4.094 3.31 6.154-3.618 4.005-8.723 7.956-15.888 10.658l-39.902-31.42-15.231-41.406c2.467-5.797 5.512-11.685 9.251-17.281z" fill="#edd17a"/><path d="m256 457.184c102.66 0 182.906-27.314 182.906-110.734-.447-6.813-1.354-13.958-2.779-21.472-19.914-105.026-108.477-160.095-108.477-160.095l-71.643-9-71.656 9s-88.564 55.069-108.477 160.095c-1.425 7.514-2.332 14.659-2.779 21.472-.001 88.513 80.245 110.734 182.905 110.734z" fill="#cf916d"/><path d="m184.006 155.302h143.989c5.493 0 13.272-6.687 13.272-15.92-2.932-4.18-7.778-6.919-13.272-6.919h-143.989c-5.493 0-10.34 2.74-13.272 6.919 0 9.505 7.778 15.92 13.272 15.92z" fill="#f5de8e"/><path d="m327.994 146.302h-143.988c-5.493 0-10.34-2.74-13.272-6.92-1.846 2.632-2.938 5.831-2.938 9.29 0 8.953 7.258 16.21 16.21 16.21h143.989c8.953 0 16.21-7.257 16.21-16.21 0-3.459-1.092-6.658-2.938-9.29-2.933 4.181-7.779 6.92-13.273 6.92z" fill="#edd17a"/><path d="m256 448.184c-102.66 0-177.432-25.723-182.906-101.734-5.937 90.452 72.296 120.315 182.906 120.315s188.843-29.863 182.906-120.315c-5.474 76.012-80.246 101.734-182.906 101.734z" fill="#c5815f"/></g><g><path d="m233.348 346.674c-3.586-2.345-8.393-1.341-10.738 2.245-2.345 3.585-1.34 8.393 2.245 10.738 8.882 5.81 15.023 7.647 22.755 8.159v6.938c0 4.284 3.473 7.757 7.757 7.757s7.757-3.473 7.757-7.757v-7.587c15.768-3.361 24.987-16.479 27.049-28.745 2.689-15.999-5.675-29.908-21.309-35.435-1.887-.667-3.815-1.364-5.74-2.087v-31.852c4.515 1.274 7.191 3.531 7.444 3.752 3.151 2.847 8.015 2.631 10.901-.497 2.904-3.149 2.706-8.057-.443-10.961-.402-.37-7.035-6.339-17.903-8.158v-6.191c0-4.284-3.473-7.757-7.757-7.757s-7.757 3.473-7.757 7.757v6.764c-.88.206-1.77.433-2.676.706-10.326 3.111-18.04 11.94-20.132 23.042-1.912 10.146 1.354 19.942 8.524 25.565 3.649 2.862 8.159 5.485 14.284 8.238v40.957c-5.12-.472-8.556-1.859-14.261-5.591zm9.551-55.813c-2.555-2.004-3.675-6.12-2.853-10.485.707-3.751 3.061-8.207 7.563-10.358v23.94c-1.752-.998-3.349-2.029-4.71-3.097zm20.794 26.753c12.477 4.41 11.712 15.072 11.18 18.235-.999 5.943-4.989 12.242-11.749 15.081v-33.52c.192.069.374.136.569.204z" fill="#eef3f9"/></g></g></svg>